<?xml version="1.0" encoding="utf-8"?>
<!-- Generator: Adobe Illustrator 16.0.4, SVG Export Plug-In . SVG Version: 6.00 Build 0)  -->
<!DOCTYPE svg PUBLIC "-//W3C//DTD SVG 1.0//EN" "http://www.w3.org/TR/2001/REC-SVG-20010904/DTD/svg10.dtd">
<svg version="1.0" xmlns="http://www.w3.org/2000/svg" xmlns:xlink="http://www.w3.org/1999/xlink" x="0px" y="0px" width="2690px"
	 height="80px" viewBox="0 0 2690 80" enable-background="new 0 0 2690 80" xml:space="preserve">
<g id="Grid" display="none">
</g>
<g id="Calque_2">
	<g>
		<g>
			<path fill-rule="evenodd" clip-rule="evenodd" fill="#CBCBCB" d="M867.31,9.088h11.404c2.927,0,5.299,2.372,5.299,5.298v11.405
				c0,2.926-2.372,5.298-5.299,5.298H867.31c-2.926,0-5.298-2.372-5.298-5.298V14.386C862.012,11.46,864.384,9.088,867.31,9.088z"/>
		</g>
		<g>
			<path fill="#FFFFFF" d="M876.422,12.588v2.587h-1.653c0,0-0.68,0.06-0.68,0.685c0,0.625,0.06,1.607,0.06,1.607h2.361l-0.324,2.65
				h-2.037v7.474h-3.158v-7.444h-1.477v-2.68h1.506v-2.263c0,0,0.178-2.62,2.598-2.62C876.038,12.585,876.422,12.588,876.422,12.588
				z"/>
		</g>
	</g>
	<g>
		<g>
			<path fill-rule="evenodd" clip-rule="evenodd" fill="#00CCFF" d="M867.31,49.088h11.404c2.927,0,5.299,2.372,5.299,5.298v11.405
				c0,2.926-2.372,5.298-5.299,5.298H867.31c-2.926,0-5.298-2.372-5.298-5.298V54.386C862.012,51.46,864.384,49.088,867.31,49.088z"
				/>
		</g>
		<g>
			<path fill="#FFFFFF" d="M876.422,52.588v2.587h-1.653c0,0-0.68,0.06-0.68,0.685c0,0.625,0.06,1.607,0.06,1.607h2.361l-0.324,2.65
				h-2.037v7.474h-3.158v-7.444h-1.477v-2.68h1.506v-2.263c0,0,0.178-2.62,2.598-2.62C876.038,52.585,876.422,52.588,876.422,52.588
				z"/>
		</g>
	</g>
	<path id="_x3C_Picto_Flux_Rss_x3E_" fill-rule="evenodd" clip-rule="evenodd" fill="#798182" d="M251.19,1h11.404
		c2.926,0,5.298,2.372,5.298,5.298v11.405c0,2.926-2.372,5.298-5.298,5.298H251.19c-2.926,0-5.298-2.372-5.298-5.298V6.298
		C245.892,3.372,248.264,1,251.19,1z M253.976,16.876c-0.061,1.03-0.941,1.815-1.975,1.758c-1.029-0.06-1.817-0.942-1.756-1.973
		c0.059-1.036,0.939-1.82,1.973-1.757C253.248,14.962,254.034,15.846,253.976,16.876z M258.685,17.036
		c-0.043,0.75-0.688,1.324-1.439,1.281c-0.377-0.021-0.707-0.194-0.939-0.455c-0.23-0.259-0.365-0.606-0.343-0.985
		c0.06-0.998-0.275-1.956-0.942-2.704c-0.663-0.744-1.577-1.188-2.575-1.245c-0.753-0.042-1.328-0.688-1.282-1.44
		c0.042-0.752,0.687-1.327,1.438-1.281c1.726,0.097,3.309,0.864,4.457,2.152C258.206,13.648,258.784,15.31,258.685,17.036z
		 M263.524,17.315c-0.043,0.752-0.688,1.326-1.439,1.283c-0.375-0.023-0.708-0.195-0.938-0.453
		c-0.232-0.262-0.367-0.612-0.346-0.987c0.273-4.727-3.352-8.797-8.08-9.069c-0.748-0.045-1.322-0.69-1.28-1.441
		c0.042-0.752,0.687-1.327,1.439-1.283C259.108,5.725,263.884,11.085,263.524,17.315z"/>
	<path id="_x3C_Picto_Facebook_x3E_" fill-rule="evenodd" clip-rule="evenodd" fill="#798182" d="M327.81,1h11.404
		c2.927,0,5.299,2.372,5.299,5.298v11.405c0,2.926-2.372,5.298-5.299,5.298H327.81c-2.926,0-5.298-2.372-5.298-5.298V6.298
		C322.512,3.372,324.884,1,327.81,1z M336.922,4.5v2.587h-1.653c0,0-0.68,0.06-0.68,0.685c0,0.625,0.06,1.607,0.06,1.607h2.361
		l-0.324,2.65h-2.037v7.474h-3.158v-7.444h-1.477v-2.68h1.506V7.117c0,0,0.178-2.62,2.598-2.62
		C336.539,4.497,336.922,4.5,336.922,4.5z"/>
	<path id="_x3C_Picto_Twitter_x3E_" fill-rule="evenodd" clip-rule="evenodd" fill="#798182" d="M407.755,1h11.404
		c2.927,0,5.299,2.372,5.299,5.298v11.405c0,2.926-2.372,5.298-5.299,5.298h-11.404c-2.926,0-5.298-2.372-5.298-5.298V6.298
		C402.457,3.372,404.829,1,407.755,1z M409.466,6.109v7.672c0,0-0.068,5.65,5.482,5.65c0,0,2.467,0.068,2.467-1.781
		s-1.68-1.85-1.68-1.85h-0.891c0,0-1.678-0.033-1.678-2.123v-1.609h2.364c0,0,1.919-0.103,1.919-1.747
		c0-1.644-1.199-1.986-1.953-1.986s-2.261,0-2.261,0V6.281c0,0-0.24-1.712-1.782-1.712C409.911,4.568,409.466,5.767,409.466,6.109z"
		/>
	<g id="_x3C_Picto_YouTube_x3E_">
		<path fill="#798182" d="M495.181,12.267h-14.611c-1.826,0-3.32,1.495-3.32,3.321v3.763c0,1.95,1.594,3.543,3.542,3.543h14.168
			c1.948,0,3.542-1.593,3.542-3.543v-3.763C498.501,13.761,497.007,12.267,495.181,12.267z"/>
		<path fill-rule="evenodd" clip-rule="evenodd" fill="#798182" d="M493.697,1h-11.404c-2.927,0-5.299,2.373-5.299,5.298v11.405
			c0,2.926,2.372,5.298,5.299,5.298h11.404c2.926,0,5.298-2.372,5.298-5.298V6.298C498.995,3.373,496.623,1,493.697,1z
			 M498.343,17.316c0,2.78-2.253,5.033-5.033,5.033h-10.631c-2.779,0-5.033-2.253-5.033-5.033V6.686c0-2.78,2.254-5.033,5.033-5.033
			h10.631c2.78,0,5.033,2.253,5.033,5.033V17.316z"/>
		<path fill="#798182" d="M482.53,4.466h1.144l0.737,2.674h0.071l0.702-2.674h1.154l-1.321,3.915v2.776h-1.136V8.505L482.53,4.466z"
			/>
		<path fill="#798182" d="M486.42,7.349c0-0.382,0.136-0.687,0.407-0.914c0.271-0.226,0.637-0.34,1.095-0.34
			c0.418,0,0.76,0.12,1.027,0.359c0.265,0.238,0.397,0.546,0.397,0.922v2.55c0,0.422-0.131,0.752-0.391,0.993
			c-0.263,0.241-0.622,0.361-1.08,0.361c-0.441,0-0.794-0.125-1.059-0.372s-0.397-0.582-0.397-1.001V7.349z M487.458,10
			c0,0.135,0.036,0.24,0.107,0.314c0.071,0.075,0.175,0.111,0.308,0.111c0.137,0,0.245-0.038,0.325-0.113
			c0.081-0.077,0.121-0.181,0.121-0.312V7.312c0-0.108-0.041-0.195-0.123-0.261c-0.082-0.067-0.189-0.1-0.323-0.1
			c-0.123,0-0.223,0.033-0.3,0.1c-0.076,0.066-0.115,0.153-0.115,0.261V10z"/>
		<path fill="#798182" d="M493.042,6.221v4.936h-1.009v-0.545c-0.184,0.2-0.378,0.354-0.58,0.459
			c-0.2,0.104-0.396,0.158-0.584,0.158c-0.234,0-0.409-0.075-0.527-0.222c-0.117-0.147-0.177-0.367-0.177-0.661V6.221h1.007v3.784
			c0,0.117,0.022,0.201,0.065,0.253c0.041,0.052,0.109,0.079,0.204,0.079c0.074,0,0.168-0.035,0.282-0.104
			c0.112-0.069,0.217-0.158,0.31-0.266V6.221H493.042z"/>
		<path fill="#E0E8EA" d="M484.254,14.038h-3.613v1.029h1.218v6.056h1.178v-6.056h1.218V14.038z"/>
		<path fill="#E0E8EA" d="M486.652,19.865c-0.099,0.113-0.206,0.207-0.324,0.28c-0.117,0.074-0.216,0.11-0.291,0.11
			c-0.099,0-0.17-0.027-0.215-0.084c-0.042-0.055-0.064-0.144-0.064-0.268v-4.01h-1.045v4.371c0,0.312,0.062,0.544,0.184,0.7
			c0.123,0.156,0.304,0.233,0.546,0.233c0.196,0,0.398-0.055,0.606-0.167c0.21-0.11,0.409-0.271,0.604-0.483v0.574h1.045v-5.229
			h-1.045V19.865z"/>
		<path fill="#E0E8EA" d="M491.226,16.165c-0.174-0.222-0.427-0.333-0.758-0.333c-0.162,0-0.322,0.041-0.481,0.124
			c-0.157,0.081-0.307,0.205-0.448,0.362v-2.28h-1.056v7.085h1.056v-0.401c0.137,0.16,0.287,0.278,0.447,0.354
			c0.158,0.077,0.341,0.114,0.546,0.114c0.31,0,0.547-0.099,0.71-0.295c0.164-0.197,0.246-0.482,0.246-0.853v-2.9
			C491.487,16.713,491.4,16.388,491.226,16.165z M490.411,19.899c0,0.168-0.031,0.286-0.091,0.359
			c-0.061,0.074-0.154,0.11-0.282,0.11c-0.088,0-0.172-0.019-0.252-0.056c-0.081-0.037-0.164-0.1-0.248-0.185v-3.257
			c0.071-0.072,0.143-0.126,0.216-0.159c0.072-0.035,0.146-0.051,0.222-0.051c0.141,0,0.249,0.045,0.325,0.136
			c0.074,0.091,0.11,0.225,0.11,0.402V19.899z"/>
		<path fill="#E0E8EA" d="M495.109,18.632V17.3c0-0.495-0.127-0.874-0.384-1.139s-0.625-0.396-1.104-0.396
			c-0.468,0-0.848,0.143-1.144,0.427c-0.296,0.286-0.444,0.657-0.444,1.108v2.349c0,0.503,0.136,0.899,0.404,1.186
			c0.269,0.287,0.638,0.431,1.105,0.431c0.521,0,0.912-0.134,1.172-0.405c0.265-0.271,0.394-0.676,0.394-1.211V19.38h-1.074v0.238
			c0,0.308-0.036,0.506-0.104,0.596c-0.069,0.091-0.19,0.136-0.364,0.136c-0.166,0-0.284-0.053-0.354-0.159
			s-0.103-0.297-0.103-0.572v-0.986H495.109z M493.111,17.292c0-0.219,0.035-0.377,0.108-0.469c0.073-0.098,0.191-0.144,0.357-0.144
			c0.159,0,0.277,0.046,0.348,0.144c0.073,0.092,0.11,0.25,0.11,0.469v0.527h-0.924V17.292z"/>
	</g>
	<path id="_x3C_Picto_Flickr_x3E_" fill-rule="evenodd" clip-rule="evenodd" fill="#798182" d="M560.026,1h11.404
		c2.927,0,5.299,2.372,5.299,5.298v11.405c0,2.926-2.372,5.298-5.299,5.298h-11.404c-2.926,0-5.298-2.372-5.298-5.298V6.298
		C554.728,3.372,557.1,1,560.026,1z M572.729,12.001c0,1.657-1.395,2.999-3.111,2.999s-3.111-1.342-3.111-2.999
		c0-1.659,1.395-3.001,3.111-3.001S572.729,10.342,572.729,12.001 M564.951,12.001c0,1.657-1.395,2.999-3.113,2.999
		c-1.717,0-3.109-1.342-3.109-2.999c0-1.659,1.393-3.001,3.109-3.001C563.557,9,564.951,10.342,564.951,12.001"/>
	<path id="_x3C_Picto_Flux_Rss_Rose_Rollover_x3E_" fill-rule="evenodd" clip-rule="evenodd" fill="#FF0066" d="M251.19,57h11.404
		c2.926,0,5.298,2.372,5.298,5.298v11.405c0,2.926-2.372,5.298-5.298,5.298H251.19c-2.926,0-5.298-2.372-5.298-5.298V62.298
		C245.892,59.372,248.264,57,251.19,57z M253.976,72.876c-0.061,1.03-0.941,1.815-1.975,1.758c-1.029-0.06-1.817-0.942-1.756-1.973
		c0.059-1.036,0.939-1.82,1.973-1.757C253.248,70.962,254.034,71.846,253.976,72.876z M258.685,73.036
		c-0.043,0.75-0.688,1.324-1.439,1.281c-0.377-0.021-0.707-0.194-0.939-0.455c-0.23-0.259-0.365-0.606-0.343-0.985
		c0.06-0.998-0.275-1.956-0.942-2.704c-0.663-0.744-1.577-1.188-2.575-1.245c-0.753-0.042-1.328-0.688-1.282-1.44
		c0.042-0.752,0.687-1.327,1.438-1.281c1.726,0.097,3.309,0.864,4.457,2.152C258.206,69.648,258.784,71.31,258.685,73.036z
		 M263.524,73.315c-0.043,0.752-0.688,1.326-1.439,1.283c-0.375-0.023-0.708-0.195-0.938-0.453
		c-0.232-0.262-0.367-0.612-0.346-0.987c0.273-4.727-3.352-8.797-8.08-9.069c-0.748-0.045-1.322-0.69-1.28-1.441
		c0.042-0.752,0.687-1.327,1.439-1.283C259.108,61.725,263.884,67.085,263.524,73.315z"/>
	<path id="_x3C_Picto_Twitter_Rose_Rollover_x3E_" fill-rule="evenodd" clip-rule="evenodd" fill="#FF0066" d="M407.755,57h11.404
		c2.927,0,5.299,2.372,5.299,5.298v11.405c0,2.926-2.372,5.298-5.299,5.298h-11.404c-2.926,0-5.298-2.372-5.298-5.298V62.298
		C402.457,59.372,404.829,57,407.755,57z M409.466,62.109v7.672c0,0-0.068,5.65,5.482,5.65c0,0,2.467,0.068,2.467-1.781
		s-1.68-1.85-1.68-1.85h-0.891c0,0-1.678-0.033-1.678-2.123v-1.609h2.364c0,0,1.919-0.103,1.919-1.747
		c0-1.644-1.199-1.986-1.953-1.986s-2.261,0-2.261,0v-2.055c0,0-0.24-1.712-1.782-1.712
		C409.911,60.568,409.466,61.767,409.466,62.109z"/>
	<path id="_x3C_Picto_Facebook_Rose_Rollover_x3E_" fill-rule="evenodd" clip-rule="evenodd" fill="#FF0066" d="M327.81,57h11.404
		c2.927,0,5.299,2.372,5.299,5.298v11.405c0,2.926-2.372,5.298-5.299,5.298H327.81c-2.926,0-5.298-2.372-5.298-5.298V62.298
		C322.512,59.372,324.884,57,327.81,57z M336.922,60.5v2.587h-1.653c0,0-0.68,0.06-0.68,0.685c0,0.625,0.06,1.607,0.06,1.607h2.361
		l-0.324,2.65h-2.037v7.474h-3.158v-7.444h-1.477v-2.68h1.506v-2.263c0,0,0.178-2.62,2.598-2.62
		C336.539,60.497,336.922,60.5,336.922,60.5z"/>
	<g id="_x3C_Picto_YouTube_Rose_Rollover_x3E_">
		<g>
			<path fill="#FF0066" d="M495.181,68.267h-14.611c-1.826,0-3.32,1.495-3.32,3.321v3.763c0,1.95,1.594,3.543,3.542,3.543h14.168
				c1.948,0,3.542-1.593,3.542-3.543v-3.763C498.501,69.761,497.007,68.267,495.181,68.267z"/>
			<path fill-rule="evenodd" clip-rule="evenodd" fill="#FF0066" d="M493.697,57h-11.404c-2.927,0-5.299,2.373-5.299,5.298v11.405
				c0,2.926,2.372,5.298,5.299,5.298h11.404c2.926,0,5.298-2.372,5.298-5.298V62.298C498.995,59.373,496.623,57,493.697,57z
				 M498.343,73.316c0,2.78-2.253,5.033-5.033,5.033h-10.631c-2.779,0-5.033-2.253-5.033-5.033V62.686
				c0-2.78,2.254-5.033,5.033-5.033h10.631c2.78,0,5.033,2.253,5.033,5.033V73.316z"/>
			<path fill="#FF0066" d="M482.53,60.466h1.144l0.737,2.674h0.071l0.702-2.674h1.154l-1.321,3.915v2.776h-1.136v-2.651
				L482.53,60.466z"/>
			<path fill="#FF0066" d="M486.42,63.349c0-0.382,0.136-0.687,0.407-0.914c0.271-0.226,0.637-0.34,1.095-0.34
				c0.418,0,0.76,0.12,1.027,0.359c0.265,0.238,0.397,0.546,0.397,0.922v2.55c0,0.422-0.131,0.752-0.391,0.993
				c-0.263,0.241-0.622,0.361-1.08,0.361c-0.441,0-0.794-0.125-1.059-0.372s-0.397-0.582-0.397-1.001V63.349z M487.458,66
				c0,0.135,0.036,0.24,0.107,0.314c0.071,0.075,0.175,0.111,0.308,0.111c0.137,0,0.245-0.038,0.325-0.113
				c0.081-0.077,0.121-0.181,0.121-0.312v-2.688c0-0.108-0.041-0.195-0.123-0.261c-0.082-0.067-0.189-0.1-0.323-0.1
				c-0.123,0-0.223,0.033-0.3,0.1c-0.076,0.066-0.115,0.153-0.115,0.261V66z"/>
			<path fill="#FF0066" d="M493.042,62.221v4.936h-1.009v-0.545c-0.184,0.2-0.378,0.354-0.58,0.459
				c-0.2,0.104-0.396,0.158-0.584,0.158c-0.234,0-0.409-0.075-0.527-0.222c-0.117-0.147-0.177-0.367-0.177-0.661v-4.125h1.007v3.784
				c0,0.117,0.022,0.201,0.065,0.253c0.041,0.052,0.109,0.079,0.204,0.079c0.074,0,0.168-0.035,0.282-0.104
				c0.112-0.069,0.217-0.158,0.31-0.266v-3.746H493.042z"/>
		</g>
		<g>
			<path fill="#E0E8EA" d="M484.254,70.038h-3.613v1.029h1.218v6.056h1.178v-6.056h1.218V70.038z"/>
			<path fill="#E0E8EA" d="M486.652,75.865c-0.099,0.113-0.206,0.207-0.324,0.28c-0.117,0.074-0.216,0.11-0.291,0.11
				c-0.099,0-0.17-0.027-0.215-0.084c-0.042-0.055-0.064-0.144-0.064-0.268v-4.01h-1.045v4.371c0,0.312,0.062,0.544,0.184,0.7
				c0.123,0.156,0.304,0.233,0.546,0.233c0.196,0,0.398-0.055,0.606-0.167c0.21-0.11,0.409-0.271,0.604-0.483v0.574h1.045v-5.229
				h-1.045V75.865z"/>
			<path fill="#E0E8EA" d="M491.226,72.165c-0.174-0.222-0.427-0.333-0.758-0.333c-0.162,0-0.322,0.041-0.481,0.124
				c-0.157,0.081-0.307,0.205-0.448,0.362v-2.28h-1.056v7.085h1.056v-0.401c0.137,0.16,0.287,0.278,0.447,0.354
				c0.158,0.077,0.341,0.114,0.546,0.114c0.31,0,0.547-0.099,0.71-0.295c0.164-0.197,0.246-0.482,0.246-0.853v-2.9
				C491.487,72.713,491.4,72.388,491.226,72.165z M490.411,75.899c0,0.168-0.031,0.286-0.091,0.359
				c-0.061,0.074-0.154,0.11-0.282,0.11c-0.088,0-0.172-0.019-0.252-0.056c-0.081-0.037-0.164-0.1-0.248-0.185v-3.257
				c0.071-0.072,0.143-0.126,0.216-0.159c0.072-0.035,0.146-0.051,0.222-0.051c0.141,0,0.249,0.045,0.325,0.136
				c0.074,0.091,0.11,0.225,0.11,0.402V75.899z"/>
			<path fill="#E0E8EA" d="M495.109,74.632V73.3c0-0.495-0.127-0.874-0.384-1.139s-0.625-0.396-1.104-0.396
				c-0.468,0-0.848,0.143-1.144,0.427c-0.296,0.286-0.444,0.657-0.444,1.108v2.349c0,0.503,0.136,0.899,0.404,1.186
				c0.269,0.287,0.638,0.431,1.105,0.431c0.521,0,0.912-0.134,1.172-0.405c0.265-0.271,0.394-0.676,0.394-1.211V75.38h-1.074v0.238
				c0,0.308-0.036,0.506-0.104,0.596c-0.069,0.091-0.19,0.136-0.364,0.136c-0.166,0-0.284-0.053-0.354-0.159
				s-0.103-0.297-0.103-0.572v-0.986H495.109z M493.111,73.292c0-0.219,0.035-0.377,0.108-0.469
				c0.073-0.098,0.191-0.144,0.357-0.144c0.159,0,0.277,0.046,0.348,0.144c0.073,0.092,0.11,0.25,0.11,0.469v0.527h-0.924V73.292z"
				/>
		</g>
	</g>
	<path id="_x3C_Picto_Flickr_Rose_Rollover_x3E_" fill-rule="evenodd" clip-rule="evenodd" fill="#FF0066" d="M560.026,57h11.404
		c2.927,0,5.299,2.372,5.299,5.298v11.405c0,2.926-2.372,5.298-5.299,5.298h-11.404c-2.926,0-5.298-2.372-5.298-5.298V62.298
		C554.728,59.372,557.1,57,560.026,57z M572.729,68.001c0,1.657-1.395,2.999-3.111,2.999s-3.111-1.342-3.111-2.999
		c0-1.659,1.395-3.001,3.111-3.001S572.729,66.342,572.729,68.001 M564.951,68.001c0,1.657-1.395,2.999-3.113,2.999
		c-1.717,0-3.109-1.342-3.109-2.999c0-1.659,1.393-3.001,3.109-3.001C563.557,65,564.951,66.342,564.951,68.001"/>
	<path id="_x3C_Picto_Twitter_Rollover_x3E_" fill-rule="evenodd" clip-rule="evenodd" fill="#00CCFF" d="M407.755,29h11.404
		c2.927,0,5.299,2.372,5.299,5.298v11.405c0,2.926-2.372,5.298-5.299,5.298h-11.404c-2.926,0-5.298-2.372-5.298-5.298V34.298
		C402.457,31.372,404.829,29,407.755,29z M409.466,34.109v7.672c0,0-0.068,5.65,5.482,5.65c0,0,2.467,0.068,2.467-1.781
		s-1.68-1.85-1.68-1.85h-0.891c0,0-1.678-0.033-1.678-2.123v-1.609h2.364c0,0,1.919-0.103,1.919-1.747
		c0-1.644-1.199-1.986-1.953-1.986s-2.261,0-2.261,0v-2.055c0,0-0.24-1.712-1.782-1.712
		C409.911,32.568,409.466,33.767,409.466,34.109z"/>
	<path id="_x3C_Picto_Flux_Rss_Rollover_x3E__1_" fill-rule="evenodd" clip-rule="evenodd" fill="#00CCFF" d="M251.19,29h11.404
		c2.926,0,5.298,2.372,5.298,5.298v11.405c0,2.926-2.372,5.298-5.298,5.298H251.19c-2.926,0-5.298-2.372-5.298-5.298V34.298
		C245.892,31.372,248.264,29,251.19,29z M253.976,44.876c-0.061,1.03-0.941,1.815-1.975,1.758c-1.029-0.06-1.817-0.942-1.756-1.973
		c0.059-1.036,0.939-1.82,1.973-1.757C253.248,42.962,254.034,43.846,253.976,44.876z M258.685,45.036
		c-0.043,0.75-0.688,1.324-1.439,1.281c-0.377-0.021-0.707-0.194-0.939-0.455c-0.23-0.259-0.365-0.606-0.343-0.985
		c0.06-0.998-0.275-1.956-0.942-2.704c-0.663-0.744-1.577-1.188-2.575-1.245c-0.753-0.042-1.328-0.688-1.282-1.44
		c0.042-0.752,0.687-1.327,1.438-1.281c1.726,0.097,3.309,0.864,4.457,2.152C258.206,41.648,258.784,43.31,258.685,45.036z
		 M263.524,45.315c-0.043,0.752-0.688,1.326-1.439,1.283c-0.375-0.023-0.708-0.195-0.938-0.453
		c-0.232-0.262-0.367-0.612-0.346-0.987c0.273-4.727-3.352-8.797-8.08-9.069c-0.748-0.045-1.322-0.69-1.28-1.441
		c0.042-0.752,0.687-1.327,1.439-1.283C259.108,33.725,263.884,39.085,263.524,45.315z"/>
	<path id="_x3C_Picto_Facebook_Rollover_x3E__1_" fill-rule="evenodd" clip-rule="evenodd" fill="#00CCFF" d="M327.81,29h11.404
		c2.927,0,5.299,2.372,5.299,5.298v11.405c0,2.926-2.372,5.298-5.299,5.298H327.81c-2.926,0-5.298-2.372-5.298-5.298V34.298
		C322.512,31.372,324.884,29,327.81,29z M336.922,32.5v2.587h-1.653c0,0-0.68,0.06-0.68,0.685c0,0.625,0.06,1.607,0.06,1.607h2.361
		l-0.324,2.65h-2.037v7.474h-3.158v-7.444h-1.477v-2.68h1.506v-2.263c0,0,0.178-2.62,2.598-2.62
		C336.539,32.497,336.922,32.5,336.922,32.5z"/>
	<g id="_x3C_Picto_YouTube_Rollover_x3E__1_">
		<path fill="#00CCFF" d="M495.181,40.267h-14.611c-1.826,0-3.32,1.495-3.32,3.321v3.763c0,1.95,1.594,3.543,3.542,3.543h14.168
			c1.948,0,3.542-1.593,3.542-3.543v-3.763C498.501,41.761,497.007,40.267,495.181,40.267z"/>
		<g>
			<path fill="#E0E8EA" d="M484.254,42.038h-3.613v1.029h1.218v6.056h1.178v-6.056h1.218V42.038z"/>
			<path fill="#E0E8EA" d="M486.652,47.865c-0.099,0.113-0.206,0.207-0.324,0.28c-0.117,0.074-0.216,0.11-0.291,0.11
				c-0.099,0-0.17-0.027-0.215-0.084c-0.042-0.055-0.064-0.144-0.064-0.268v-4.01h-1.045v4.371c0,0.312,0.062,0.544,0.184,0.7
				c0.123,0.156,0.304,0.233,0.546,0.233c0.196,0,0.398-0.055,0.606-0.167c0.21-0.11,0.409-0.271,0.604-0.483v0.574h1.045v-5.229
				h-1.045V47.865z"/>
			<path fill="#E0E8EA" d="M491.226,44.165c-0.174-0.222-0.427-0.333-0.758-0.333c-0.162,0-0.322,0.041-0.481,0.124
				c-0.157,0.081-0.307,0.205-0.448,0.362v-2.28h-1.056v7.085h1.056v-0.401c0.137,0.16,0.287,0.278,0.447,0.354
				c0.158,0.077,0.341,0.114,0.546,0.114c0.31,0,0.547-0.099,0.71-0.295c0.164-0.197,0.246-0.482,0.246-0.853v-2.9
				C491.487,44.713,491.4,44.388,491.226,44.165z M490.411,47.899c0,0.168-0.031,0.286-0.091,0.359
				c-0.061,0.074-0.154,0.11-0.282,0.11c-0.088,0-0.172-0.019-0.252-0.056c-0.081-0.037-0.164-0.1-0.248-0.185v-3.257
				c0.071-0.072,0.143-0.126,0.216-0.159c0.072-0.035,0.146-0.051,0.222-0.051c0.141,0,0.249,0.045,0.325,0.136
				c0.074,0.091,0.11,0.225,0.11,0.402V47.899z"/>
			<path fill="#E0E8EA" d="M495.109,46.632V45.3c0-0.495-0.127-0.874-0.384-1.139s-0.625-0.396-1.104-0.396
				c-0.468,0-0.848,0.143-1.144,0.427c-0.296,0.286-0.444,0.657-0.444,1.108v2.349c0,0.503,0.136,0.899,0.404,1.186
				c0.269,0.287,0.638,0.431,1.105,0.431c0.521,0,0.912-0.134,1.172-0.405c0.265-0.271,0.394-0.676,0.394-1.211V47.38h-1.074v0.238
				c0,0.308-0.036,0.506-0.104,0.596c-0.069,0.091-0.19,0.136-0.364,0.136c-0.166,0-0.284-0.053-0.354-0.159
				s-0.103-0.297-0.103-0.572v-0.986H495.109z M493.111,45.292c0-0.219,0.035-0.377,0.108-0.469
				c0.073-0.098,0.191-0.144,0.357-0.144c0.159,0,0.277,0.046,0.348,0.144c0.073,0.092,0.11,0.25,0.11,0.469v0.527h-0.924V45.292z"
				/>
		</g>
		<path fill-rule="evenodd" clip-rule="evenodd" fill="#00CCFF" d="M493.697,29h-11.404c-2.927,0-5.299,2.373-5.299,5.298v11.405
			c0,2.926,2.372,5.298,5.299,5.298h11.404c2.926,0,5.298-2.372,5.298-5.298V34.298C498.995,31.373,496.623,29,493.697,29z
			 M498.343,45.316c0,2.78-2.253,5.033-5.033,5.033h-10.631c-2.779,0-5.033-2.253-5.033-5.033V34.686
			c0-2.78,2.254-5.033,5.033-5.033h10.631c2.78,0,5.033,2.253,5.033,5.033V45.316z"/>
		<path fill="#00CCFF" d="M482.53,32.466h1.144l0.737,2.674h0.071l0.702-2.674h1.154l-1.321,3.915v2.776h-1.136v-2.651
			L482.53,32.466z"/>
		<path fill="#00CCFF" d="M486.42,35.349c0-0.382,0.136-0.687,0.407-0.914c0.271-0.226,0.637-0.34,1.095-0.34
			c0.418,0,0.76,0.12,1.027,0.359c0.265,0.238,0.397,0.546,0.397,0.922v2.55c0,0.422-0.131,0.752-0.391,0.993
			c-0.263,0.241-0.622,0.361-1.08,0.361c-0.441,0-0.794-0.125-1.059-0.372s-0.397-0.582-0.397-1.001V35.349z M487.458,38
			c0,0.135,0.036,0.24,0.107,0.314c0.071,0.075,0.175,0.111,0.308,0.111c0.137,0,0.245-0.038,0.325-0.113
			c0.081-0.077,0.121-0.181,0.121-0.312v-2.688c0-0.108-0.041-0.195-0.123-0.261c-0.082-0.067-0.189-0.1-0.323-0.1
			c-0.123,0-0.223,0.033-0.3,0.1c-0.076,0.066-0.115,0.153-0.115,0.261V38z"/>
		<path fill="#00CCFF" d="M493.042,34.221v4.936h-1.009v-0.545c-0.184,0.2-0.378,0.354-0.58,0.459
			c-0.2,0.104-0.396,0.158-0.584,0.158c-0.234,0-0.409-0.075-0.527-0.222c-0.117-0.147-0.177-0.367-0.177-0.661v-4.125h1.007v3.784
			c0,0.117,0.022,0.201,0.065,0.253c0.041,0.052,0.109,0.079,0.204,0.079c0.074,0,0.168-0.035,0.282-0.104
			c0.112-0.069,0.217-0.158,0.31-0.266v-3.746H493.042z"/>
	</g>
	<path id="_x3C_Picto_Flickr_Rollover_x3E__1_" fill-rule="evenodd" clip-rule="evenodd" fill="#00CCFF" d="M560.026,29h11.404
		c2.927,0,5.299,2.372,5.299,5.298v11.405c0,2.926-2.372,5.298-5.299,5.298h-11.404c-2.926,0-5.298-2.372-5.298-5.298V34.298
		C554.728,31.372,557.1,29,560.026,29z M572.729,40.001c0,1.657-1.395,2.999-3.111,2.999s-3.111-1.342-3.111-2.999
		c0-1.659,1.395-3.001,3.111-3.001S572.729,38.342,572.729,40.001 M564.951,40.001c0,1.657-1.395,2.999-3.113,2.999
		c-1.717,0-3.109-1.342-3.109-2.999c0-1.659,1.393-3.001,3.109-3.001C563.557,37,564.951,38.342,564.951,40.001"/>
	<g>
		<path fill="#CBCBCB" d="M651.75,31.778h-19.5c-1.795,0-3.25,1.492-3.25,3.334v13.333c0,1.841,1.455,3.333,3.25,3.333h19.5
			c1.795,0,3.25-1.492,3.25-3.333V35.112C655,33.27,653.545,31.778,651.75,31.778z M651.75,46.778c0,0.921-0.728,1.667-1.625,1.667
			h-16.25c-0.897,0-1.625-0.746-1.625-1.667v-10c0-0.92,0.728-1.666,1.625-1.666h16.25c0.897,0,1.625,0.746,1.625,1.666V46.778z"/>
		<polygon fill="#CBCBCB" points="647.688,37.611 642,43.445 636.312,37.611 634.688,39.278 637.125,41.778 634.688,44.278 
			636.312,45.945 638.75,43.445 642,45.945 645.25,43.445 647.688,45.945 649.312,44.278 646.875,41.778 649.312,39.278 		"/>
	</g>
	<g>
		<path fill="#CBCBCB" d="M727.833,29.778h-1.5c0.828,0,1.5,0.672,1.5,1.5v1.5c0,0.829-0.672,1.5-1.5,1.5h-3
			c-0.828,0-1.5-0.671-1.5-1.5v-1.5c0-0.828,0.672-1.5,1.5-1.5h-9c0.828,0,1.5,0.672,1.5,1.5v1.5c0,0.829-0.672,1.5-1.5,1.5h-3
			c-0.828,0-1.5-0.671-1.5-1.5v-1.5c0-0.828,0.672-1.5,1.5-1.5h-1.5c-1.656,0-3,1.343-3,3v18c0,1.657,1.344,3,3,3h18
			c1.656,0,3-1.343,3-3v-18C730.833,31.121,729.489,29.778,727.833,29.778z M727.833,49.278c0,0.829-0.672,1.5-1.5,1.5h-15
			c-0.828,0-1.5-0.671-1.5-1.5v-10.5c0-0.828,0.672-1.5,1.5-1.5h15c0.828,0,1.5,0.672,1.5,1.5V49.278z"/>
		<rect x="712.833" y="40.278" fill="#CBCBCB" width="3" height="3"/>
		<rect x="717.333" y="40.278" fill="#CBCBCB" width="3" height="3"/>
		<rect x="721.833" y="40.278" fill="#CBCBCB" width="3" height="3"/>
		<rect x="712.833" y="44.778" fill="#CBCBCB" width="3" height="3"/>
		<rect x="717.333" y="44.778" fill="#CBCBCB" width="3" height="3"/>
		<rect x="721.833" y="44.778" fill="#CBCBCB" width="3" height="3"/>
		<rect x="711.333" y="29.778" fill="#CBCBCB" width="3" height="3"/>
		<rect x="723.333" y="29.778" fill="#CBCBCB" width="3" height="3"/>
	</g>
	<g>
		<path fill="#CBCBCB" d="M806.634,22.389c-2.526,11.035-19.496,15.717-27.301,4.262c2.991,3.072,8.198,3.344,11.499-0.33
			c-1.938,0.304-3.347-1.742-0.967-2.846c-2.141,0.25-3.33-0.974-3.814-2.016c0.499-0.562,1.052-0.829,2.122-0.902
			c-2.342-0.596-3.206-1.829-3.471-3.325c0.649-0.167,1.462-0.312,1.902-0.246c-2.048-1.154-2.76-2.893-2.646-4.197
			c3.664,1.466,5.999,2.643,7.952,3.767c0.695,0.401,1.474,1.121,2.348,2.036c1.114-3.175,2.494-6.445,4.854-8.068
			c-0.039,0.366-0.225,0.709-0.465,0.991c0.669-0.655,1.538-1.106,2.42-1.236c-0.1,0.715-1.055,1.116-1.631,1.35
			c0.436-0.146,2.758-1.262,3.01-0.625c0.302,0.718-1.601,1.056-1.924,1.18c-0.242,0.088-0.482,0.183-0.719,0.286
			c2.941-0.315,5.752,2.299,6.569,5.541c0.058,0.235,0.118,0.494,0.173,0.767c1.074,0.434,3.024-0.022,3.65-0.436
			c-0.454,1.156-1.635,2.008-3.373,2.163c0.84,0.376,2.42,0.584,3.51,0.383C809.643,21.684,808.53,22.406,806.634,22.389z"/>
	</g>
	<g>
		<path fill="#00CCFF" d="M806.634,62.389c-2.526,11.035-19.496,15.717-27.301,4.262c2.991,3.072,8.198,3.344,11.499-0.33
			c-1.938,0.304-3.347-1.742-0.967-2.846c-2.141,0.25-3.33-0.974-3.814-2.016c0.499-0.562,1.052-0.829,2.122-0.902
			c-2.342-0.596-3.206-1.829-3.471-3.325c0.649-0.167,1.462-0.312,1.902-0.246c-2.048-1.154-2.76-2.893-2.646-4.197
			c3.664,1.466,5.999,2.643,7.952,3.767c0.695,0.401,1.474,1.121,2.348,2.036c1.114-3.175,2.494-6.445,4.854-8.068
			c-0.039,0.366-0.225,0.709-0.465,0.991c0.669-0.655,1.538-1.106,2.42-1.236c-0.1,0.715-1.055,1.116-1.631,1.35
			c0.436-0.146,2.758-1.262,3.01-0.625c0.302,0.718-1.601,1.056-1.924,1.18c-0.242,0.088-0.482,0.183-0.719,0.286
			c2.941-0.315,5.752,2.299,6.569,5.541c0.058,0.235,0.118,0.494,0.173,0.767c1.074,0.434,3.024-0.022,3.65-0.436
			c-0.454,1.156-1.635,2.008-3.373,2.163c0.84,0.376,2.42,0.584,3.51,0.383C809.643,61.684,808.53,62.406,806.634,62.389z"/>
	</g>
	<polygon id="_x3C_Flèche_Carrousel_Gauche_x3E_" fill="#FFFFFF" points="1669.834,51 1669.834,70 1659.834,60.487 	"/>
	<polygon id="_x3C_Flèche_Carrousel_Droite_x3E__1_" fill="#FFFFFF" points="1687.834,70 1687.834,51 1697.834,60.513 	"/>
	<polygon id="_x3C_Flèche_Carrousel_Vert_Gauche_x3E_" fill="#0C404D" points="1669.834,11 1669.834,30 1659.834,20.487 	"/>
	<polygon id="_x3C_Flèche_Carrousel_Vert_Droite_x3E_" fill="#0C404D" points="1687.834,30 1687.834,11 1697.834,20.513 	"/>
	<polygon fill="#00CCFF" points="1943,80 1911.915,80 1943,30 	"/>
	<polygon fill="#FFFFFF" points="1937.632,66.14 1933.466,66.14 1933.466,61.973 1931.798,61.973 1931.798,66.14 1927.632,66.14 
		1927.632,67.806 1931.798,67.806 1931.798,71.973 1933.466,71.973 1933.466,67.806 1937.632,67.806 	"/>
	<g>
		<path fill-rule="evenodd" clip-rule="evenodd" fill="#CCCCCC" d="M2299.811,50.2c-3.279,0-5.938-2.659-5.938-5.938
			c0-3.28,2.658-5.938,5.938-5.938s5.938,2.658,5.938,5.938C2305.749,47.542,2303.09,50.2,2299.811,50.2z M2300.051,41.479h-2.311
			l2.724,2.724l-2.724,2.723h2.311l2.724-2.723L2300.051,41.479z"/>
	</g>
	<g>
		<path fill-rule="evenodd" clip-rule="evenodd" fill="#FFFFFF" d="M2299.811,27.2c-3.279,0-5.938-2.659-5.938-5.938
			c0-3.28,2.658-5.938,5.938-5.938s5.938,2.658,5.938,5.938C2305.749,24.542,2303.09,27.2,2299.811,27.2z M2300.051,18.479h-2.311
			l2.724,2.724l-2.724,2.723h2.311l2.724-2.723L2300.051,18.479z"/>
	</g>
	<g id="_x3C_Fleche_pour_Module_Ecoutez_x3E_">
		<path fill="#666666" d="M2421.614,20l-7,5.493V14.507L2421.614,20z"/>
	</g>
	<g id="_x3C_Fleche_pour_Module_Ecoutez_Rollover_x3E_">
		<path fill="#00CCFF" d="M2421.614,66l-7,5.493V60.507L2421.614,66z"/>
	</g>
	<g id="_x3C_Fleche_Rose_pour_Module_Ecoutez_Rollover_x3E_">
		<path fill="#FF0066" d="M2421.614,43l-7,5.493V37.507L2421.614,43z"/>
	</g>
	<g id="_x3C_PIcto_Partager_x3E_">
		<path fill="#666666" d="M2463.102,23.205c-0.649,0-1.236,0.243-1.699,0.632l-5.374-2.686c0.005-0.051,0.015-0.1,0.015-0.151
			c0-0.052-0.01-0.102-0.015-0.152l5.374-2.688c0.463,0.389,1.05,0.635,1.699,0.635c1.464,0,2.648-1.186,2.648-2.649
			c0-1.46-1.185-2.646-2.648-2.646c-1.462,0-2.645,1.186-2.645,2.646c0,0.053,0.011,0.101,0.016,0.152l-5.375,2.687
			c-0.463-0.388-1.05-0.633-1.699-0.633c-1.464,0-2.648,1.185-2.648,2.648c0,1.462,1.185,2.646,2.648,2.646
			c0.649,0,1.236-0.243,1.699-0.631l5.375,2.687c-0.005,0.051-0.016,0.098-0.016,0.15c0,1.464,1.183,2.649,2.645,2.649
			c1.464,0,2.648-1.185,2.648-2.649C2465.75,24.39,2464.565,23.205,2463.102,23.205z"/>
	</g>
	<g id="_x3C_PIcto_Partager_Rollover_x3E_">
		<path fill="#00CCFF" d="M2463.102,69.205c-0.649,0-1.236,0.243-1.699,0.632l-5.374-2.686c0.005-0.051,0.015-0.1,0.015-0.151
			c0-0.052-0.01-0.102-0.015-0.152l5.374-2.688c0.463,0.389,1.05,0.635,1.699,0.635c1.464,0,2.648-1.186,2.648-2.649
			c0-1.46-1.185-2.646-2.648-2.646c-1.462,0-2.645,1.186-2.645,2.646c0,0.053,0.011,0.101,0.016,0.152l-5.375,2.687
			c-0.463-0.388-1.05-0.633-1.699-0.633c-1.464,0-2.648,1.185-2.648,2.648c0,1.462,1.185,2.646,2.648,2.646
			c0.649,0,1.236-0.243,1.699-0.631l5.375,2.687c-0.005,0.051-0.016,0.098-0.016,0.15c0,1.464,1.183,2.649,2.645,2.649
			c1.464,0,2.648-1.185,2.648-2.649C2465.75,70.39,2464.565,69.205,2463.102,69.205z"/>
	</g>
	<g id="_x3C_PIcto_Rose_Partager_Rollover_x3E_">
		<path fill="#FF0066" d="M2463.102,46.205c-0.649,0-1.236,0.243-1.699,0.632l-5.374-2.686c0.005-0.051,0.015-0.1,0.015-0.151
			c0-0.052-0.01-0.102-0.015-0.152l5.374-2.688c0.463,0.389,1.05,0.635,1.699,0.635c1.464,0,2.648-1.186,2.648-2.649
			c0-1.46-1.185-2.646-2.648-2.646c-1.462,0-2.645,1.186-2.645,2.646c0,0.053,0.011,0.101,0.016,0.152l-5.375,2.687
			c-0.463-0.388-1.05-0.633-1.699-0.633c-1.464,0-2.648,1.185-2.648,2.648c0,1.462,1.185,2.646,2.648,2.646
			c0.649,0,1.236-0.243,1.699-0.631l5.375,2.687c-0.005,0.051-0.016,0.098-0.016,0.15c0,1.464,1.183,2.649,2.645,2.649
			c1.464,0,2.648-1.185,2.648-2.649C2465.75,47.39,2464.565,46.205,2463.102,46.205z"/>
	</g>
	<g id="_x3C_Picto_Envoyer_par_Email_x3E_">
		<path fill="#666666" d="M2513.75,21.75l6.537-7.671h-15.904c-0.05,0,0.208,0.013,0.165,0.027l7.76,7.644H2513.75z
			 M2520.922,23.895l0.002-8.893l-4.014,4.858L2520.922,23.895z M2520.922,25.341l-4.661-4.468l-2.034,1.961
			c0,0-1.081,1.322-2.528-0.012l-2.75-2.066l-5.013,4.857v1.015c0.003,0.236,0.202,0.431,0.447,0.431h16.098
			c0.242,0,0.441-0.195,0.443-0.431l-0.002-0.47V25.341z M2503.938,15.171l-0.003,8.705l4.453-4.316L2503.938,15.171z"/>
	</g>
	<g id="_x3C_Picto_Rose_Envoyer_par_Email_x3E_">
		<path fill="#FF0066" d="M2513.75,44.75l6.537-7.671h-15.904c-0.05,0,0.208,0.013,0.165,0.027l7.76,7.644H2513.75z
			 M2520.922,46.895l0.002-8.893l-4.014,4.858L2520.922,46.895z M2520.922,48.341l-4.661-4.468l-2.034,1.961
			c0,0-1.081,1.322-2.528-0.012l-2.75-2.066l-5.013,4.857v1.015c0.003,0.236,0.202,0.431,0.447,0.431h16.098
			c0.242,0,0.441-0.195,0.443-0.431l-0.002-0.47V48.341z M2503.938,38.171l-0.003,8.705l4.453-4.316L2503.938,38.171z"/>
	</g>
	<g id="_x3C_Picto_Bleu_Envoyer_par_Email_x3E_">
		<path fill="#00CCFF" d="M2513.75,67.75l6.537-7.671h-15.904c-0.05,0,0.208,0.013,0.165,0.027l7.76,7.644H2513.75z
			 M2520.922,69.895l0.002-8.893l-4.014,4.858L2520.922,69.895z M2520.922,71.341l-4.661-4.468l-2.034,1.961
			c0,0-1.081,1.322-2.528-0.012l-2.75-2.066l-5.013,4.857v1.015c0.003,0.236,0.202,0.431,0.447,0.431h16.098
			c0.242,0,0.441-0.195,0.443-0.431l-0.002-0.47V71.341z M2503.938,61.171l-0.003,8.705l4.453-4.316L2503.938,61.171z"/>
	</g>
	<g id="_x3C_Picto_Imprimer_x3E_">
		<path fill="#666666" d="M2571.167,17.669h-0.825v-0.847v-2.236c0-0.027-0.015-0.062-0.033-0.083l-3.893-3.964
			c-0.021-0.019-0.057-0.035-0.082-0.035h-8.188c-0.064,0-0.116,0.054-0.116,0.119v7.045h-0.826c-1.356,0-2.489,0.973-2.766,2.271
			c-0.041,0.198-0.066,0.401-0.066,0.612v5.059c0,1.593,1.269,2.883,2.832,2.883h0.799v-1.828h12.05v1.828h1.115
			c1.563,0,2.832-1.291,2.832-2.883v-5.059C2573.999,18.96,2572.73,17.669,2571.167,17.669z M2569.221,21.161h-10.07V18.58v-6.931
			h6.629c0.418,0.056,0.611,1.322,0.611,1.846v1.428h1.357c0.077,0.005,1.354,0.051,1.473,0.534v1.428V21.161z"/>
	</g>
	<g id="_x3C_Picto_Rose_Imprimer_x3E_">
		<path fill="#FF0066" d="M2571.167,40.669h-0.825v-0.847v-2.236c0-0.027-0.015-0.062-0.033-0.083l-3.893-3.964
			c-0.021-0.019-0.057-0.035-0.082-0.035h-8.188c-0.064,0-0.116,0.054-0.116,0.119v7.045h-0.826c-1.356,0-2.489,0.973-2.766,2.271
			c-0.041,0.198-0.066,0.401-0.066,0.612v5.059c0,1.593,1.269,2.883,2.832,2.883h0.799v-1.828h12.05v1.828h1.115
			c1.563,0,2.832-1.291,2.832-2.883v-5.059C2573.999,41.96,2572.73,40.669,2571.167,40.669z M2569.221,44.161h-10.07V41.58v-6.931
			h6.629c0.418,0.056,0.611,1.322,0.611,1.846v1.428h1.357c0.077,0.005,1.354,0.051,1.473,0.534v1.428V44.161z"/>
	</g>
	<g id="_x3C_Picto_Imprimer_Rollover_x3E_">
		<path fill="#00CCFF" d="M2571.167,63.669h-0.825v-0.847v-2.236c0-0.027-0.015-0.062-0.033-0.083l-3.893-3.964
			c-0.021-0.019-0.057-0.035-0.082-0.035h-8.188c-0.064,0-0.116,0.054-0.116,0.119v7.045h-0.826c-1.356,0-2.489,0.973-2.766,2.271
			c-0.041,0.198-0.066,0.401-0.066,0.612v5.059c0,1.593,1.269,2.883,2.832,2.883h0.799v-1.828h12.05v1.828h1.115
			c1.563,0,2.832-1.291,2.832-2.883v-5.059C2573.999,64.96,2572.73,63.669,2571.167,63.669z M2569.221,67.161h-10.07V64.58v-6.931
			h6.629c0.418,0.056,0.611,1.322,0.611,1.846v1.428h1.357c0.077,0.005,1.354,0.051,1.473,0.534v1.428V67.161z"/>
	</g>
	<path id="_x3C_Géo_Localisation_Bleu_x3E_" fill="#00CCFF" d="M2623.951,57c-0.471-4.724-4.227-8.48-8.951-8.95V48h-1h-1v0.05
		c-4.725,0.469-8.48,4.225-8.949,8.95H2604v1v1h0.051c0.469,4.724,4.227,8.48,8.949,8.95V68h1h1v-0.05
		c4.725-0.469,8.48-4.226,8.951-8.95H2624v-1v-1H2623.951z M2615,65.931V62h-2v3.931c-3.617-0.452-6.479-3.314-6.93-6.931h3.93v-2
		h-3.93c0.451-3.617,3.312-6.479,6.93-6.931V54h2v-3.931c3.617,0.452,6.48,3.313,6.932,6.931H2618v2h3.932
		C2621.479,62.617,2618.617,65.479,2615,65.931z"/>
	<path id="_x3C_Géo_Localisation_Rose_x3E_" fill="#FF0066" d="M2623.951,17c-0.471-4.724-4.227-8.48-8.951-8.95V8h-1h-1v0.05
		c-4.725,0.469-8.48,4.225-8.949,8.95H2604v1v1h0.051c0.469,4.724,4.227,8.48,8.949,8.95V28h1h1v-0.05
		c4.725-0.469,8.48-4.226,8.951-8.95H2624v-1v-1H2623.951z M2615,25.931V22h-2v3.931c-3.617-0.452-6.479-3.314-6.93-6.931h3.93v-2
		h-3.93c0.451-3.617,3.312-6.479,6.93-6.931V14h2v-3.931c3.617,0.452,6.48,3.313,6.932,6.931H2618v2h3.932
		C2621.479,22.617,2618.617,25.479,2615,25.931z"/>
	<polygon fill="#00CCFF" points="2030.084,70 1990.084,70 2030.084,6 	"/>
	<polygon fill="#FFFFFF" points="2022.326,51.973 2017.326,51.973 2017.326,46.973 2015.326,46.973 2015.326,51.973 
		2010.326,51.973 2010.326,53.973 2015.326,53.973 2015.326,58.973 2017.326,58.973 2017.326,53.973 2022.326,53.973 	"/>
	<rect id="_x3C_Puce_Medium_Bleue_x3E_" x="2072.705" y="41.667" fill="#00CCFF" width="8" height="8"/>
	<rect id="_x3C_Puce_Medium_Rose_pale_x3E_" x="2072.705" y="21.667" fill="#FF96BE" width="8" height="8"/>
	<rect id="_x3C_Puce_Medium_Rose_x3E_" x="2072.705" y="61.667" fill="#FF0066" width="8" height="8"/>
	<rect id="_x3C_Puce_Small_Grise_x3E_" x="2110.562" y="44.732" fill="#E0E8EA" width="8" height="5"/>
	<g>
		<path fill="#00CCFF" d="M2223.733,42.335l6.499-6.072l4.299,4.018l3.854,3.602l1.164-1.22l-2.705-2.51l-6.611-6.137l-9.678,9.032
			l0.205,0.215l0.934,0.979L2223.733,42.335z"/>
		<path fill="#00CCFF" d="M2238.389,51.721h-1.363v-7.363l-4.293-3.895l-2.475-2.246l-3.717,3.371l-3.502,3.179v6.954h-1.324
			c-0.342,0-0.619,0.291-0.619,0.649s0.277,0.649,0.619,0.649h16.674c0.343,0,0.619-0.291,0.619-0.649
			S2238.731,51.721,2238.389,51.721z M2232.572,51.721h-5.08v-6.55h5.08V51.721z"/>
	</g>
	<g display="none">
		<path display="inline" d="M1516.183,40.919l16.454,13.5h-32.908L1516.183,40.919z"/>
	</g>
	<g id="_x3C_Groupe_Fleche_blanche_Haut_x3E_">
		<path fill="#FFFFFF" stroke="#FFFFFF" stroke-miterlimit="10" d="M1597.183,20.919l16.454,13.5h-32.908L1597.183,20.919z"/>
	</g>
	<g id="_x3C_Groupe_Fleche_bleue_Bas_01_x3E_">
		<path fill="#00CCFF" d="M1255.183,70l-16.454-13.5h32.908L1255.183,70z"/>
	</g>
	<g id="_x3C_Groupe_Fleche_blanche_Bas_01_x3E_">
		<path fill="#FFFFFF" d="M1445.183,70l-16.454-13.5h32.908L1445.183,70z"/>
	</g>
	<g id="_x3C_Groupe_Fleche_noire_Bas_01_x3E_">
		<path fill="#333333" d="M1515.183,70l-16.454-13.5h32.908L1515.183,70z"/>
	</g>
	<g id="_x3C_Groupe_Fleche_noire_Haut_01_x3E_">
		<path fill="#333333" d="M1531.637,50h-32.908l16.454-13.5L1531.637,50z"/>
	</g>
	<g id="_x3C_Groupe_Fleche_noire_Gauche_01_x3E_">
		<path fill="#FFFFFF" d="M1441.933,0v32.908l-13.5-16.454L1441.933,0z"/>
	</g>
	<g id="_x3C_Groupe_Fleche_blanche_Bas_x3E_">
		<path fill="#FFFFFF" d="M1255.183,37l-66-37h132L1255.183,37z"/>
	</g>
	<g id="Calque_4">
	</g>
	<g id="_x3C_Groupe_Loupe_noire_x3E_">
		<path fill="#333333" d="M184.828,45.631L181,41.826c-0.045-0.043-0.094-0.078-0.141-0.113c0.646-0.986,1.025-2.16,1.025-3.424
			c0-3.475-2.836-6.289-6.334-6.289s-6.334,2.814-6.334,6.289s2.836,6.289,6.334,6.289c1.271,0,2.455-0.375,3.449-1.018
			c0.037,0.047,0.07,0.096,0.113,0.139l3.828,3.803c0.262,0.258,0.604,0.389,0.943,0.389c0.342,0,0.682-0.131,0.943-0.389
			C185.348,46.986,185.348,46.146,184.828,45.631z M175.551,42.025c-2.074,0-3.764-1.678-3.764-3.736
			c0-2.061,1.689-3.736,3.764-3.736c2.072,0,3.762,1.676,3.762,3.736C179.312,40.348,177.623,42.025,175.551,42.025z"/>
	</g>
	<g id="_x3C_Groupe_Loupe_blanche_vers_la_droite_x3E_">
		<path fill="#FFFFFF" d="M109.606,47.502c0.262,0.258,0.602,0.389,0.943,0.389c0.34,0,0.682-0.131,0.943-0.389l3.828-3.803
			c0.043-0.043,0.076-0.092,0.113-0.139c0.994,0.643,2.178,1.018,3.449,1.018c3.498,0,6.334-2.814,6.334-6.289
			S122.382,32,118.884,32s-6.334,2.814-6.334,6.289c0,1.264,0.379,2.438,1.025,3.424c-0.047,0.035-0.096,0.07-0.141,0.113
			l-3.828,3.805C109.087,46.146,109.087,46.986,109.606,47.502z M115.122,38.289c0-2.061,1.689-3.736,3.762-3.736
			c2.074,0,3.764,1.676,3.764,3.736c0,2.059-1.689,3.736-3.764,3.736C116.812,42.025,115.122,40.348,115.122,38.289z"/>
	</g>
	<g id="_x3C_Groupe_Loupe_blanche_x3E_">
		<path fill="#FFFFFF" d="M62.903,59.133l-12.919-12.84c-0.152-0.145-0.316-0.264-0.475-0.382c2.182-3.329,3.46-7.29,3.46-11.555
			c0-11.726-9.571-21.225-21.376-21.225c-11.806,0-21.376,9.499-21.376,21.225c0,11.727,9.571,21.225,21.376,21.225
			c4.291,0,8.285-1.266,11.64-3.434c0.125,0.158,0.237,0.323,0.383,0.468l12.919,12.833c0.883,0.87,2.037,1.312,3.183,1.312
			c1.154,0,2.301-0.442,3.184-1.312C64.656,63.708,64.656,60.874,62.903,59.133z M31.593,46.965c-7,0-12.702-5.663-12.702-12.61
			c0-6.954,5.702-12.609,12.702-12.609c6.994,0,12.695,5.655,12.695,12.609C44.288,41.303,38.587,46.965,31.593,46.965z"/>
	</g>
	<g id="_x3C_Groupe_Fleche_bleue_Bas_02_x3E_" display="none">
		<path display="inline" fill="#00CCFF" d="M1237.012,54.998l18,16.01l18-16.01H1237.012z"/>
	</g>
	<g id="_x3C_Groupe_Fleche_blanche_Bas_02_x3E_" display="none">
		<path display="inline" fill="#FFFFFF" d="M1427.012,54.998l18,16.01l18-16.01H1427.012z"/>
	</g>
	<g id="_x3C_Groupe_Fleche_Blanche_Bas_Entete_Onglet_x3E_">
		<path fill="#FFFFFF" d="M1329.02,63l6,8.005l6-8.005H1329.02z"/>
	</g>
	<g id="_x3C_Groupe_Fleche_Noire_Bas_Entete_Onglet_x3E_">
		<path d="M1346,63l6,8.005l6-8.005H1346z"/>
	</g>
	<g id="_x3C_Groupe_Fleche_Blanche_Bas_Entete_Onglet_ecran_480_x3E_">
		<path fill="#FFFFFF" d="M1366.02,60.999l9,12.008l9-12.008H1366.02z"/>
	</g>
	<g id="_x3C_Groupe_Fleche_Blanche_Haut_Entete_Onglet_x3E_">
		<path fill="#FFFFFF" d="M1341.02,61.006l-6-8.005l-6,8.005H1341.02z"/>
	</g>
	<g id="_x3C_Groupe_Fleche_Noire_Haut_Entete_Onglet_x3E_">
		<path d="M1358,61.006L1352,53l-6,8.005H1358z"/>
	</g>
	<g id="_x3C_Groupe_Fleche_Blanche_Droite_Bouton_ReadMore_x3E_">
		<path fill="#FFFFFF" d="M1301.817,66.8l6.403-4.8l-6.403-4.8V66.8z"/>
	</g>
	<g id="_x3C_Groupe_Fleche_Blanche_Gauche_Bouton_ReadMore_x3E_">
		<path fill="#FFFFFF" d="M1300.403,57.2L1294,62l6.403,4.8V57.2z"/>
	</g>
	<g id="_x3C_Groupe_Fleche_Bleue_Droite_Bouton_ReadMore_x3E_">
		<path fill="#00CCFF" d="M1301.817,55.8l6.403-4.8l-6.403-4.8V55.8z"/>
	</g>
	<g id="_x3C_Groupe_Fleche_Blanche_Bas_Bouton_Plus_de_Resultats_x3E__1_">
		<path fill="#FFFFFF" d="M1510,8l4.001,4L1518,8H1510z"/>
	</g>
	<g id="_x3C_Groupe_Fleche_Blanche_Bas_Bouton_Plus_de_Resultats_x3E_">
		<path fill="#FFFFFF" d="M1510,14l4.001,4l3.999-4H1510z"/>
	</g>
	<g id="_x3C_Groupe_Fleche_Blanche_Bas_Bouton_Plus_de_Resultats_x3E__11_">
		<path fill="#FFFFFF" d="M1507,18l-4.001-4L1499,18H1507z"/>
	</g>
	<g id="_x3C_Groupe_Fleche_Blanche_Bas_Bouton_Plus_de_Resultats_x3E__10_">
		<path fill="#FFFFFF" d="M1507,12l-4.001-4L1499,12H1507z"/>
	</g>
	<g id="_x3C_Groupe_Fleche_Blanche_Bas_Bouton_Plus_de_Resultats_x3E__3_">
		<path fill="#FF0066" d="M1530,18l-4.001-4L1522,18H1530z"/>
	</g>
	<g id="_x3C_Groupe_Fleche_Blanche_Bas_Bouton_Plus_de_Resultats_x3E__2_">
		<path fill="#FF0066" d="M1530,12l-4.001-4L1522,12H1530z"/>
	</g>
	<g id="_x3C_Groupe_Fleche_Blanche_Bas_Bouton_Plus_de_Resultats_x3E__9_">
		<path fill="#FF0066" d="M1532,8l4.001,4L1540,8H1532z"/>
	</g>
	<g id="_x3C_Groupe_Fleche_Blanche_Bas_Bouton_Plus_de_Resultats_x3E__8_">
		<path fill="#FF0066" d="M1532,14l4.001,4l3.999-4H1532z"/>
	</g>
	<g id="_x3C_Groupe_Fleche_Blanche_Bas_Bouton_Plus_de_Resultats_x3E__5_">
		<path fill="#00CCFF" d="M1550,18l-4.001-4L1542,18H1550z"/>
	</g>
	<g id="_x3C_Groupe_Fleche_Blanche_Bas_Bouton_Plus_de_Resultats_x3E__4_">
		<path fill="#00CCFF" d="M1550,12l-4.001-4L1542,12H1550z"/>
	</g>
	<g id="_x3C_Groupe_Fleche_Blanche_Bas_Bouton_Plus_de_Resultats_x3E__7_">
		<path fill="#00CCFF" d="M1553,8l4.001,4L1561,8H1553z"/>
	</g>
	<g id="_x3C_Groupe_Fleche_Blanche_Bas_Bouton_Plus_de_Resultats_x3E__6_">
		<path fill="#00CCFF" d="M1553,14l4.001,4l3.999-4H1553z"/>
	</g>
	<g id="_x3C_Groupe_Fleche_Blanche_Gauche_pour_Bouton_x3E_">
		<path fill="#FFFFFF" d="M1384.02,58.008l-9-12.008l-9,12.008H1384.02z"/>
	</g>
	<path id="_x3C_Check_Mark_x3E_" fill-rule="evenodd" clip-rule="evenodd" fill="#FFFFFF" d="M2359.574,50.191l-3.562-3.989
		l1.572-1.573l1.99,2.042l3.906-4.625l1.729,1.812L2359.574,50.191z"/>
</g>
<g id="Mode_Isolation" display="none">
</g>
</svg>
